# AST/ASF file generated using VICON BodyLanguage
# -----------------------------------------------
:version 1.10
:name VICON
:units
  mass 1.0
  length 0.45
  angle deg
:documentation
   .ast/.asf automatically generated from VICON data using
   VICON BodyBuilder and BodyLanguage model FoxedUp or BRILLIANT.MOD
:root
   order TX TY TZ RX RY RZ
   axis XYZ
   position 0 0 0  
   orientation 0 0 0 
:bonedata
  begin
     id 1 
     name lhipjoint
     direction 0.692814 -0.645514 0.321437 
     length 2.38754 
     axis 0 0 0  XYZ
  end
  begin
     id 2 
     name lfemur
     direction 0.34202 -0.939693 0  
     length 6.41921  
     axis 0 0 20  XYZ
    dof rx ry rz
    limits (-160.0 20.0)
           (-70.0 70.0)
           (-60.0 70.0)
  end
  begin
     id 3 
     name ltibia
     direction 0.34202 -0.939693 0   
     length 6.98247   
     axis 0 0 20   XYZ
    dof rx
    limits (-10.0 170.0)
  end
  begin
     id 4 
     name lfoot
     direction 0.0947186 -0.260237 0.960888   
     length 1.83034   
     axis -90 7.62852e-016 20   XYZ
    dof rx rz
    limits (-45.0 90.0)
           (-70.0 20.0)
  end
  begin
     id 5 
     name ltoes
     direction 1.53538e-011 -4.21952e-011 1   
     length 0.920499   
     axis -90 7.62852e-016 20   XYZ
    dof rx
    limits (-90.0 20.0)
  end
  begin
     id 6 
     name rhipjoint
     direction -0.631686 -0.693949 0.345555   
     length 2.2209  
     axis 0 0 0  XYZ 
  end
  begin
     id 7 
     name rfemur
     direction -0.34202 -0.939693 0   
     length 6.49542   
     axis 0 0 -20   XYZ
    dof rx ry rz
    limits (-160.0 20.0)
           (-70.0 70.0)
           (-70.0 60.0)
  end
  begin
     id 8 
     name rtibia
     direction -0.34202 -0.939693 0   
     length 7.21712   
     axis 0 0 -20   XYZ
    dof rx
    limits (-10.0 170.0)
 end
 begin
     id 9 
     name rfoot
     direction -0.0825378 -0.226771 0.970444   
     length 1.89724  
     axis -90 -7.62852e-016 -20   XYZ
    dof rx rz
    limits (-45.0 90.0)
           (-20.0 70.0)
  end
  begin
     id 10 
     name rtoes
     direction -1.53515e-011 -4.22016e-011 1   
     length 0.955868   
     axis -90 -7.62852e-016 -20   XYZ
    dof rx
    limits (-90.0 20.0)
  end
  begin
     id 11 
     name lowerback
     direction -0.0104711 0.984802 -0.173368   
     length 1.84931   
     axis 0 0 0   XYZ
    dof rx ry rz
    limits (-20.0 45.0)
           (-30.0 30.0)
           (-30.0 30.0)
  end
  begin
     id 12 
     name upperback
     direction -0.00286433 0.999996 -0.000382853   
     length 1.85768   
     axis 0 0 0   XYZ
    dof rx ry rz
    limits (-20.0 45.0)
           (-30.0 30.0)
           (-30.0 30.0)
  end
  begin
     id 13 
     name thorax
     direction 0.00167534 0.996793 0.0800069   
     length 1.92   
     axis 0 0 0   XYZ
    dof rx ry rz
    limits (-20.0 45.0)
           (-30.0 30.0)
           (-30.0 30.0)
  end
  begin
     id 14 
     name lowerneck
     direction -0.0672491 0.995415 0.068018   
     length 1.58923   
     axis 0 0 0   XYZ
    dof rx ry rz
    limits (-20.0 45.0)
           (-30.0 30.0)
           (-30.0 30.0)
  end
  begin
     id 15 
     name upperneck
     direction 0.0958019 0.982476 -0.159884   
     length 1.60189   
     axis 0 0 0   XYZ
    dof rx ry rz
    limits (-20.0 45.0)
           (-30.0 30.0)
           (-30.0 30.0)
  end
  begin
     id 16
     name head
     direction 0.032989 0.997338 -0.0650226  
     length 1.61681  
     axis 0 0 0   XYZ
    dof rx ry rz
    limits (-20.0 45.0)
           (-30.0 30.0)
           (-30.0 30.0)
  end
  begin
     id 17 
     name lclavicle
     direction 0.954279 0.298875 -0.00496069  
     length 2.99449  
     axis 0 0 0   XYZ
    dof ry rz
    limits (-20.0 10.0)
           (0.0 20.0)
  end
  begin
     id 18 
     name lhumerus
     direction 1 -4.48985e-011 -4.2057e-027   
     length 4.79185   
     axis 180 -30 -90   XYZ
    dof rx ry rz
    limits (-60.0 90.0)
           (-90.0 90.0)
           (-90.0 90.0)
  end
  begin
     id 19
     name lradius
     direction 1 -4.48945e-011 1.15441e-028   
     length 2.65553   
     axis 180 -30 -90   XYZ
    dof rx
    limits (-10.0 170.0)
  end
  begin
     id 20
     name lwrist
     direction 1 -4.4899e-011 4.8894e-028   
     length 1.32777   
     axis -2.56392e-016 90 90   XYZ
    dof ry
    limits (-180.0 0.0)
 end
  begin
     id 21 
     name lhand
     direction 1 -4.48908e-011 9.7788e-028   
     length 0.743904   
     axis -6.23971e-016 90 90   XYZ
    dof rx rz
    limits (-90.0 90.0)
           (-45.0 45.0)
  end
  begin
     id 22 
     name lfingers
     direction 1 -4.49068e-011 1.95576e-027   
     length 0.599754   
     axis -1.24794e-015 90 90   XYZ
    dof rx
    limits (0.0 90.0)
  end
  begin
     id 23
     name lthumb
     direction 0.707107 -6.34883e-011 0.707107   
     length 0.861131   
     axis -90 45 2.85299e-015   XYZ
    dof rx rz
    limits (-45.0 45.0)
           (-45.0 45.0)
  end
  begin
     id 24 
     name rclavicle
     direction -0.957921 0.286916 0.00811568   
     length 3.06817  
     axis 0 0 0   XYZ 
    dof ry rz
    limits (-10.0 20.0)
           (-20.0 0.0)
  end
  begin
     id 25 
     name rhumerus
     direction -1 -4.48971e-011 -3.07942e-027  
     length 4.77254   
     axis 180 30 90   XYZ
    dof rx ry rz
    limits (-90.0 60.0)
           (-90.0 90.0)
           (-90.0 90.0)
  end
  begin
     id 26 
     name rradius
     direction -1 -4.48957e-011 -9.6815e-028   
     length 2.75995   
     axis 180 30 90   XYZ
    dof rx
    limits (-10.0 170.0)
  end
  begin
     id 27 
     name rwrist
     direction -1 -4.48979e-011 4.8894e-028   
     length 1.37997   
     axis -2.56392e-016 -90 -90   XYZ
    dof ry
    limits (-180.0 0.0)
  end
  begin
     id 28
     name rhand
     direction -1 -4.48906e-011 9.7788e-028   
     length 0.701619   
     axis -6.23971e-016 -90 -90   XYZ
    dof rx rz
    limits (-90.0 90.0)
           (-45.0 45.0)
  end
  begin
     id 29
     name rfingers
     direction -1 -4.49018e-011 1.95576e-027   
     length 0.565663   
     axis -1.24794e-015 -90 -90   XYZ
    dof rx
    limits (0.0 90.0)
  end
  begin
     id 30
     name rthumb
     direction -0.707107 -6.34881e-011 0.707107   
     length 0.812183   
     axis -90 -45 -2.85299e-015   XYZ
    dof rx rz
    limits (-45.0 45.0)
           (-45.0 45.0)
  end
:hierarchy
  begin
    root lhipjoint rhipjoint lowerback
    lhipjoint lfemur
    lfemur ltibia
    ltibia lfoot
    lfoot ltoes
    rhipjoint rfemur
    rfemur rtibia
    rtibia rfoot
    rfoot rtoes
    lowerback upperback
    upperback thorax
    thorax lowerneck lclavicle rclavicle
    lowerneck upperneck
    upperneck head
    lclavicle lhumerus
    lhumerus lradius
    lradius lwrist
    lwrist lhand lthumb
    lhand lfingers
    rclavicle rhumerus
    rhumerus rradius
    rradius rwrist
    rwrist rhand rthumb
    rhand rfingers
  end

#!OML:ASF F:\VICON\USERDATA\INSTALL\rory3\rory3.ASF
:FULLY-SPECIFIED
:DEGREES
1
root 0.286986 16.1633 -0.473103 -1.82453 1.77726 -1.88506
lowerback 9.41148 0.210778 -1.6926
upperback 0.123956 0.0660551 -0.575251
thorax -5.15481 0.0677096 0.344433
lowerneck 0.64455 -10.5732 -17.0624
upperneck 1.19235 -15.1825 24.0753
head 3.5419 -7.54878 9.58436
rclavicle 5.09386e-015 7.15625e-015
rhumerus -32.697 12.6769 -97.4633
rradius 24.428
rwrist 12.964
rhand -5.82532 11.6839
rfingers 7.12502
rthumb 20.0003 -17.3068
lclavicle 5.09386e-015 7.15625e-015
lhumerus -28.5139 7.85865 84.4754
lradius 21.4852
lwrist 6.65008
lhand -12.2059 11.6447
lfingers 7.12502
lthumb 13.8586 41.163
rfemur 4.24245 12.7508 19.2697
rtibia 8.35484
rfoot -8.04989 -12.2082
rtoes -3.90915
lfemur 4.66039 -13.8639 -15.8347
ltibia 5.47953
lfoot -5.49337 7.96577
ltoes -10.9635
2
root 0.28897 16.1623 -0.4714 -1.78036 1.81346 -1.75825
lowerback 9.46755 0.179407 -1.78852
upperback 0.0836028 0.0107659 -0.59648
thorax -5.2277 0.0433028 0.38367
lowerneck 0.979861 -10.3506 -16.497
upperneck 0.000846629 -14.6803 23.7283
head 2.96169 -7.3535 9.46381
rclavicle -1.00883e-014 -8.74653e-015
rhumerus -32.7722 12.702 -97.4676
rradius 24.4697
rwrist 12.8833
rhand -5.73263 11.6199
rfingers 7.12502
rthumb 20.0894 -17.3615
lclavicle -1.00883e-014 -8.74653e-015
lhumerus -28.6288 7.87021 84.4339
lradius 21.4468
lwrist 6.62884
lhand -12.1872 11.6525
lfingers 7.12502
lthumb 13.8766 41.1695
rfemur 4.13471 12.7197 19.1084
rtibia 8.48835
rfoot -8.11945 -12.2012
rtoes -4.15064
lfemur 4.76934 -13.8916 -15.9771
ltibia 5.1874
lfoot -5.33111 7.98274
ltoes -10.6634
3
root 0.2894 16.1621 -0.469904 -1.76019 1.85839 -1.759
lowerback 9.51597 0.146541 -1.74774
upperback 0.0859935 -0.0285224 -0.576567
thorax -5.25162 0.023315 0.38687
lowerneck 1.21896 -10.1648 -16.2547
upperneck -1.08935 -14.2586 23.6137
head 2.49641 -7.18944 9.46094
rclavicle -1.51573e-015 -7.95139e-015
rhumerus -32.8295 12.8673 -97.4925
rradius 24.561
rwrist 12.6528
rhand -5.69593 11.522
rfingers 7.12502
rthumb 20.1246 -17.4557
lclavicle -1.51573e-015 -7.95139e-015
lhumerus -28.6482 7.95321 84.4047
lradius 21.337
lwrist 6.54874
lhand -12.1908 11.4107
lfingers 7.12502
lthumb 13.8731 40.928
rfemur 4.17166 12.674 19.1105
rtibia 8.39858
rfoot -8.03811 -12.2392
rtoes -4.49677
lfemur 4.71434 -13.9351 -15.9701
ltibia 5.25482
lfoot -5.36531 7.99806
ltoes -10.8019
4
root 0.289391 16.1627 -0.468191 -1.73568 1.83603 -1.80075
lowerback 9.51735 0.143089 -1.67267
upperback 0.122865 -0.0223994 -0.540723
thorax -5.2138 0.0244369 0.381213
lowerneck 1.28254 -9.9921 -16.307
upperneck -1.98831 -13.8837 23.7071
head 2.16837 -7.03235 9.55921
rclavicle -5.8393e-015 3.97569e-015
rhumerus -32.7672 12.8276 -97.4155
rradius 24.5803
rwrist 12.6729
rhand -5.79984 11.5877
rfingers 7.12502
rthumb 20.0248 -17.4005
lclavicle -5.8393e-015 3.97569e-015
lhumerus -28.5546 8.11908 84.3782
lradius 21.1809
lwrist 6.37083
lhand -12.1462 11.1808
lfingers 7.12502
lthumb 13.9161 40.6951
rfemur 4.19512 12.6939 19.1591
rtibia 8.30765
rfoot -7.99072 -12.2595
rtoes -4.40528
lfemur 4.65692 -13.9126 -15.9159
ltibia 5.32673
lfoot -5.43943 8.05602
ltoes -11.3173
5
root 0.29011 16.164 -0.465383 -1.69851 1.79214 -1.88094
lowerback 9.49493 0.152713 -1.55424
upperback 0.139406 0.00601122 -0.505505
thorax -5.18429 0.035638 0.347405
lowerneck 1.33102 -9.81641 -16.321
upperneck -2.76817 -13.5194 23.7336
head 1.87032 -6.87545 9.62516
rclavicle -1.08338e-014 -1.98785e-015
rhumerus -32.7339 12.7808 -97.3543
rradius 24.5905
rwrist 12.6894
rhand -5.827 11.6564
rfingers 7.12502
rthumb 19.9987 -17.3345
lclavicle -1.08338e-014 -1.98785e-015
lhumerus -28.5258 8.20562 84.3689
lradius 21.0867
lwrist 6.23371
lhand -12.4363 10.9575
lfingers 7.12502
lthumb 13.6366 40.4908
rfemur 4.2069 12.7346 19.2341
rtibia 8.21418
rfoot -7.99062 -12.246
rtoes -4.11074
lfemur 4.58975 -13.8687 -15.82
ltibia 5.39613
lfoot -5.48902 8.04155
ltoes -11.4325
6
root 0.29127 16.1647 -0.464601 -1.67271 1.75442 -1.96238
lowerback 9.56655 0.153967 -1.42306
upperback 0.108735 0.0215201 -0.4823
thorax -5.25686 0.0408282 0.295448
lowerneck 1.58406 -9.62288 -16.2473
upperneck -3.69207 -13.1308 23.7123
head 1.48181 -6.72191 9.67839
rclavicle -8.94531e-016 -1.98785e-015
rhumerus -32.7813 12.5404 -97.2883
rradius 24.6072
rwrist 12.8765
rhand -5.76381 11.6035
rfingers 7.12502
rthumb 20.0594 -17.381
lclavicle -8.94531e-016 -1.98785e-015
lhumerus -28.606 8.44942 84.2356
lradius 21.0558
lwrist 6.039
lhand -12.5817 10.7002
lfingers 7.12502
lthumb 13.4964 40.2429
rfemur 4.18286 12.7696 19.3084
rtibia 8.18428
rfoot -7.92517 -12.2669
rtoes -4.03736
lfemur 4.5839 -13.8319 -15.7238
ltibia 5.35656
lfoot -5.41312 7.94196
ltoes -11.2168
7
root 0.292268 16.1646 -0.461543 -1.66444 1.71089 -1.87763
lowerback 9.62645 0.174481 -1.46074
upperback 0.0931319 0.0424991 -0.495963
thorax -5.30729 0.0523069 0.299341
lowerneck 1.76526 -9.45383 -16.1518
upperneck -4.56403 -12.7758 23.6236
head 1.12094 -6.57769 9.69703
rclavicle 6.18717e-015 5.1684e-015
rhumerus -32.7969 12.3838 -97.2271
rradius 24.5782
rwrist 12.9665
rhand -5.79483 11.5526
rfingers 7.12502
rthumb 20.0296 -17.435
lclavicle 6.18717e-015 5.1684e-015
lhumerus -28.6552 8.78908 84.0654
lradius 20.9907
lwrist 5.92594
lhand -12.3606 10.5856
lfingers 7.12502
lthumb 13.7095 40.114
rfemur 4.16935 12.8166 19.2072
rtibia 8.19989
rfoot -7.8952 -12.2875
rtoes -4.1653
lfemur 4.66838 -13.7845 -15.8262
ltibia 5.2496
lfoot -5.39387 7.92727
ltoes -10.6509
8
root 0.293033 16.1642 -0.458234 -1.62551 1.71689 -1.79287
lowerback 9.62072 0.149835 -1.52614
upperback 0.078543 0.00306879 -0.482668
thorax -5.31878 0.0348673 0.355531
lowerneck 1.76846 -9.27084 -16.091
upperneck -5.20357 -12.4185 23.4812
head 0.853883 -6.41386 9.68782
rclavicle -3.97569e-016 -1.59028e-015
rhumerus -32.8344 12.4909 -97.2274
rradius 24.5783
rwrist 12.8477
rhand -5.84192 11.4205
rfingers 7.12502
rthumb 19.9843 -17.5718
lclavicle -3.97569e-016 -1.59028e-015
lhumerus -28.7248 9.09225 83.9551
lradius 20.9584
lwrist 5.81986
lhand -12.2438 10.6515
lfingers 7.12502
lthumb 13.8221 40.1723
rfemur 4.14706 12.8132 19.1036
rtibia 8.20671
rfoot -7.94703 -12.247
rtoes -4.24189
lfemur 4.68696 -13.7844 -15.9189
ltibia 5.17297
lfoot -5.40244 7.94943
ltoes -10.9366
9
root 0.295757 16.1634 -0.455333 -1.58354 1.70898 -1.74873
lowerback 9.58671 0.142268 -1.5153
upperback 0.0741885 -0.00526557 -0.484758
thorax -5.30406 0.0303801 0.34845
lowerneck 1.81179 -9.11454 -15.9542
upperneck -5.82166 -12.1063 23.2953
head 0.587153 -6.2739 9.64883
rclavicle -2.23633e-016 1.51076e-014
rhumerus -32.8574 12.4779 -97.2155
rradius 24.6136
rwrist 12.7571
rhand -5.89792 11.2728
rfingers 7.12502
rthumb 19.9305 -17.7252
lclavicle -2.23633e-016 1.51076e-014
lhumerus -28.7503 9.27998 83.8653
lradius 20.86
lwrist 5.68045
lhand -12.2507 10.8117
lfingers 7.12502
lthumb 13.8154 40.3329
rfemur 4.10258 12.8228 19.0324
rtibia 8.23423
rfoot -7.96421 -12.2469
rtoes -4.53468
lfemur 4.71585 -13.7711 -15.9747
ltibia 5.07405
lfoot -5.36234 7.98409
ltoes -10.8555
10
root 0.298073 16.1641 -0.45323 -1.53858 1.6813 -1.82862
lowerback 9.55847 0.13054 -1.35888
upperback 0.0770214 -0.00260057 -0.478691
thorax -5.28514 0.0276191 0.266398
lowerneck 1.95214 -8.93169 -15.8542
upperneck -6.56426 -11.7542 23.2326
head 0.274277 -6.12409 9.66976
rclavicle 9.93923e-016 2.38542e-015
rhumerus -32.8702 12.3376 -97.1883
rradius 24.6421
rwrist 12.8212
rhand -6.03068 11.3594
rfingers 7.12502
rthumb 19.8029 -17.6518
lclavicle 9.93923e-016 2.38542e-015
lhumerus -28.7139 9.40271 83.7538
lradius 20.6891
lwrist 5.583
lhand -12.2542 10.9051
lfingers 7.12502
lthumb 13.812 40.4265
rfemur 4.08114 12.848 19.0939
rtibia 8.1778
rfoot -7.93683 -12.2496
rtoes -4.32436
lfemur 4.64631 -13.7421 -15.8871
ltibia 5.1326
lfoot -5.37021 7.98125
ltoes -10.848
11
root 0.297625 16.1656 -0.452078 -1.47202 1.66532 -1.91099
lowerback 9.52438 0.12851 -1.26749
upperback 0.0614975 0.00763772 -0.434396
thorax -5.2823 0.0309218 0.259721
lowerneck 2.10162 -8.73825 -15.8179
upperneck -7.25489 -11.4 23.1917
head -0.0199587 -5.97107 9.70792
rclavicle 2.90723e-015 7.15625e-015
rhumerus -32.9013 12.2152 -97.1131
rradius 24.6528
rwrist 12.9151
rhand -6.17593 11.4841
rfingers 7.12502
rthumb 19.6632 -17.5414
lclavicle 2.90723e-015 7.15625e-015
lhumerus -28.7275 9.38716 83.7665
lradius 20.6353
lwrist 5.61874
lhand -12.2469 10.7503
lfingers 7.12502
lthumb 13.819 40.2713
rfemur 4.09605 12.8599 19.1747
rtibia 7.99991
rfoot -7.85992 -12.2525
rtoes -4.35681
lfemur 4.44784 -13.7243 -15.7689
ltibia 5.37413
lfoot -5.50607 7.95446
ltoes -10.7034
12
root 0.296273 16.167 -0.451124 -1.4339 1.67906 -1.99436
lowerback 9.5157 0.132226 -1.15586
upperback 0.0706736 0.0265707 -0.408201
thorax -5.26795 0.0376221 0.221587
lowerneck 2.14303 -8.58923 -15.693
upperneck -7.87627 -11.1039 23.0425
head -0.278303 -5.8379 9.68156
rclavicle -9.44227e-016 3.97569e-016
rhumerus -32.8655 12.1242 -97.0613
rradius 24.6456
rwrist 12.8705
rhand -6.17107 11.5137
rfingers 7.12502
rthumb 19.6679 -17.5114
lclavicle -9.44227e-016 3.97569e-016
lhumerus -28.6433 9.60457 83.6919
lradius 20.4801
lwrist 5.32467
lhand -12.2797 10.5419
lfingers 7.12502
lthumb 13.7874 40.065
rfemur 4.15972 12.8424 19.2679
rtibia 7.79786
rfoot -7.78249 -12.2376
rtoes -4.35767
lfemur 4.26283 -13.7381 -15.6584
ltibia 5.63048
lfoot -5.60963 7.95577
ltoes -11.0286
13
root 0.297479 16.1667 -0.447355 -1.41635 1.68267 -2.07525
lowerback 9.49849 0.135101 -1.01322
upperback 0.085431 0.0476092 -0.38799
thorax -5.24288 0.044457 0.159496
lowerneck 2.17223 -8.45792 -15.5401
upperneck -8.45088 -10.8399 22.8384
head -0.520521 -5.71759 9.62744
rclavicle 3.97569e-016 -3.97569e-016
rhumerus -32.8619 11.881 -96.9759
rradius 24.6399
rwrist 12.9575
rhand -6.28944 11.5046
rfingers 7.12502
rthumb 19.5541 -17.5321
lclavicle 3.97569e-016 -3.97569e-016
lhumerus -28.5574 9.71686 83.6694
lradius 20.3357
lwrist 5.18251
lhand -12.2959 10.508
lfingers 7.12502
lthumb 13.7718 40.0322
rfemur 4.20474 12.8361 19.3504
rtibia 7.71022
rfoot -7.73046 -12.2396
rtoes -4.4676
lfemur 4.20298 -13.7421 -15.5737
ltibia 5.73461
lfoot -5.68759 7.92528
ltoes -10.8827
14
root 0.298244 16.1666 -0.443588 -1.41229 1.67841 -2.03227
lowerback 9.50106 0.130489 -1.03214
upperback 0.100946 0.0394128 -0.389635
thorax -5.22801 0.0407752 0.169595
lowerneck 2.14923 -8.30619 -15.4099
upperneck -8.91805 -10.5593 22.6497
head -0.723873 -5.58348 9.57672
rclavicle -3.23025e-016 -6.36111e-015
rhumerus -32.9384 11.6856 -96.9287
rradius 24.7244
rwrist 13.1128
rhand -6.30075 11.4037
rfingers 7.12502
rthumb 19.5432 -17.634
lclavicle -3.23025e-016 -6.36111e-015
lhumerus -28.5294 9.82841 83.6305
lradius 20.2932
lwrist 5.06023
lhand -12.2466 10.5274
lfingers 7.12502
lthumb 13.8193 40.0484
rfemur 4.20136 12.8421 19.2957
rtibia 7.72838
rfoot -7.76419 -12.2405
rtoes -4.56746
lfemur 4.2384 -13.7356 -15.6329
ltibia 5.70177
lfoot -5.68587 7.89767
ltoes -10.6981
